#!OML:ASF F:\VICON\USERDATA\INSTALL\rory3\rory3.ASF
:FULLY-SPECIFIED
:DEGREES
3153
root 0.21911 16.3372 -0.908061 10.3479 -1.15639 0.397155
lowerback 15.9403 -1.21768 -1.6245
upperback 0.938773 -1.81537 1.01724
thorax -7.85831 -0.799585 2.41625
lowerneck -11.2542 -6.36013 -11.8695
upperneck 9.88307 -7.56324 7.54537
head 5.56511 -3.65561 3.64546
rclavicle 2.18415e-014 -9.59136e-015
rhumerus -51.204 -53.8402 -32.2266
rradius 14.2451
rwrist 5.91276
rhand -7.81819 12.8085
rfingers 7.12502
rthumb 18.0838 -16.3708
lclavicle 2.18415e-014 -9.59136e-015
lhumerus -36.7037 -12.407 84.1319
lradius 31.5257
lwrist 44.8309
lhand -2.41319 16.7151
lfingers 7.12502
lthumb 23.277 45.3281
rfemur -15.4866 12.4318 13.6667
rtibia 14.6159
rfoot -8.13056 -14.8725
rtoes 1.4746
lfemur -7.68845 -10.4177 -14.769
ltibia -3.89618e-014
lfoot -1.47165 11.4382
ltoes -7.5919
3154
root 0.2152 16.3381 -0.897865 10.371 -0.848554 0.311136
lowerback 15.8669 -1.18384 -1.57611
upperback 0.897983 -1.7608 1.02192
thorax -7.86559 -0.77443 2.38029
lowerneck -11.1366 -6.50902 -12.0605
upperneck 9.80379 -7.75725 7.64862
head 5.55192 -3.75243 3.692
rclavicle -2.61153e-014 1.14301e-014
rhumerus -50.3119 -52.4986 -33.9269
rradius 14.1107
rwrist 5.72649
rhand -8.16225 12.5929
rfingers 7.12502
rthumb 17.7527 -16.6167
lclavicle -2.61153e-014 1.14301e-014
lhumerus -37.1456 -11.5407 83.5228
lradius 31.5284
lwrist 44.7686
lhand -2.54625 16.5339
lfingers 7.12502
lthumb 23.1494 45.1629
rfemur -15.302 12.3327 13.8159
rtibia 14.4186
rfoot -8.15395 -15.0576
rtoes 1.54613
lfemur -7.72738 -10.6986 -14.6078
ltibia -4.77083e-015
lfoot -1.71285 11.6056
ltoes -6.36905
3155
root 0.210531 16.3389 -0.883641 10.4298 -0.600676 0.221163
lowerback 15.6923 -1.14127 -1.5832
upperback 0.859738 -1.70317 1.03129
thorax -7.81193 -0.746906 2.37693
lowerneck -11.03 -6.63503 -12.2144
upperneck 9.7236 -7.92346 7.73681
head 5.53586 -3.8351 3.73043
rclavicle -5.86415e-015 -4.52235e-015
rhumerus -48.5822 -50.3635 -36.7148
rradius 14.017
rwrist 4.40103
rhand -8.24193 12.3312
rfingers 7.12502
rthumb 17.676 -16.8853
lclavicle -5.86415e-015 -4.52235e-015
lhumerus -37.6031 -10.6711 82.9376
lradius 31.5678
lwrist 44.9922
lhand -2.93894 16.4286
lfingers 7.12502
lthumb 22.7726 45.1045
rfemur -15.1754 12.2911 13.9515
rtibia 14.2477
rfoot -8.1778 -15.2233
rtoes 1.62455
lfemur -7.77159 -10.9175 -14.4529
ltibia 3.53837e-014
lfoot -1.88178 11.6783
ltoes -6.20019
3156
root 0.204695 16.3384 -0.868541 10.452 -0.396221 0.227815
lowerback 15.5935 -1.05192 -1.6921
upperback 0.799288 -1.60695 0.987406
thorax -7.82521 -0.696706 2.36901
lowerneck -10.8825 -6.77725 -12.2325
upperneck 9.62919 -8.1261 7.73185
head 5.50292 -3.93728 3.71513
rclavicle 2.11457e-014 -1.14301e-015
rhumerus -48.9245 -50.0178 -36.8449
rradius 13.7798
rwrist 5.32601
rhand -8.21775 12.1737
rfingers 7.12502
rthumb 17.6993 -17.0408
lclavicle 2.11457e-014 -1.14301e-015
lhumerus -38.055 -10.0474 82.3891
lradius 31.6154
lwrist 45.0964
lhand -3.31334 16.5978
lfingers 7.12502
lthumb 22.4132 45.3175
rfemur -14.9915 12.3148 13.9813
rtibia 14.0668
rfoot -8.23823 -15.4175
rtoes 1.70462
lfemur -7.78122 -11.1153 -14.4121
ltibia -1.98785e-014
lfoot -1.89956 11.6893
ltoes -6.2318
3157
root 0.204907 16.3384 -0.84859 10.3371 -0.157589 0.212653
lowerback 15.6554 -1.00908 -1.68799
upperback 0.710359 -1.55344 0.955313
thorax -7.95972 -0.668556 2.32438
lowerneck -10.5802 -6.88437 -12.3274
upperneck 9.4762 -8.28638 7.73476
head 5.42531 -4.0242 3.72355
rclavicle -8.13775e-015 1.19271e-015
rhumerus -50.2004 -50.4766 -35.6171
rradius 13.3879
rwrist 7.43611
rhand -8.09942 12.0739
rfingers 7.12502
rthumb 17.8132 -17.1303
lclavicle -8.13775e-015 1.19271e-015
lhumerus -38.3962 -8.89554 81.585
lradius 31.3099
lwrist 44.1677
lhand -2.91655 16.8222
lfingers 7.12502
lthumb 22.7941 45.4955
rfemur -14.6255 12.1366 14.0717
rtibia 13.9027
rfoot -8.36519 -15.4099
rtoes 1.90695
lfemur -7.61024 -11.3631 -14.4123
ltibia -1.59028e-015
lfoot -1.95231 11.7104
ltoes -6.19683
3158
root 0.20986 16.3388 -0.823091 10.1663 0.115631 0.109735
lowerback 15.6417 -0.997716 -1.49695
upperback 0.66088 -1.50679 0.927626
thorax -8.01357 -0.652391 2.17668
lowerneck -10.2366 -6.98385 -12.4929
upperneck 9.33602 -8.44147 7.81349
head 5.351 -4.1075 3.76921
rclavicle 2.61278e-014 -6.75868e-015
rhumerus -49.6945 -49.2514 -36.8649
rradius 13.239
rwrist 7.44832
rhand -7.68855 11.6898
rfingers 7.12502
rthumb 18.2085 -17.478
lclavicle 2.61278e-014 -6.75868e-015
lhumerus -38.6611 -7.69287 80.7543
lradius 30.9224
lwrist 43.3652
lhand -2.59128 16.9173
lfingers 7.12502
lthumb 23.1062 45.5518
rfemur -14.2106 11.7832 14.2765
rtibia 13.8014
rfoot -8.45055 -15.2647
rtoes 1.83307
lfemur -7.34836 -11.6385 -14.3529
ltibia -3.10104e-014
lfoot -2.07598 11.7189
ltoes -5.87962
